<?xml version="1.0" encoding="UTF-8"?><svg id="Layer_2" xmlns="http://www.w3.org/2000/svg" viewBox="0 0 217.22 229.59"><defs><style>.cls-1{fill:#fff;stroke-width:0px;}</style></defs><g id="Layer_1-2"><path class="cls-1" d="M133.96,2.09c14.72-4.37,67.75-1.79,77.14,6.71-25.87-4.68-51.56-5.46-77.14-6.71Z"/><path class="cls-1" d="M4.66,215.77c6.83,3.08,13.25,6.98,20.78,9.11,7.55,2.14,16.2,2.51,24.38,3.66.03.2.06.41.09.61-3.49.15-6.99.51-10.45.41-9.98-.3-19.3-2.1-27.4-6.17-3.96-1.99-6.95-4.48-7.39-7.61Z"/><path class="cls-1" d="M118.35,1.3c3.61-.12,7.22-.25,10.83-.37.03.32.07.64.1.96-3.49.96-7.14.8-10.8.54l-.13-1.13Z"/><path class="cls-1" d="M63.66,229.59h-9.1c2.17-2.12,6.27-2.26,9.1,0Z"/><path class="cls-1" d="M215.43,27.63c-1.31-8.9-6.54-13.56-19.48-15.41-7.87-1.12-14.55-2-22.57-2.18-20.2-.45-40.42-.72-60.63-.53-1.17.01-2.33.06-3.46.13-1.13-.07-2.28-.11-3.46-.13-20.2-.2-40.43.08-60.63.53-8.02.18-14.7,1.06-22.57,2.18C9.71,14.07,3.09,18.73,1.78,27.63.58,35.86.47,44.18.41,52.46c-.05,6.67-.62,13.34-.33,20.01.8,18.39,1.34,36.78,2.33,55.16.9,16.75,2.09,33.49,3.5,50.22.73,8.73,1.99,17.45,3.44,26.15.47,2.79,1.9,5.6,3.63,8.18,4.23,6.3,12.08,9.59,22.05,10.08,9.43.47,18.93.24,28.4.31,4.05.02,8.1,0,12.15,0,0,.15.01.3.02.45,11.23-.31,22.46-.52,33.68-.9,11.22.38,22.46.59,33.69.9,0-.15.01-.3.02-.45,4.05,0,8.1.02,12.14,0,9.47-.07,18.98.16,28.4-.31,9.97-.49,17.82-3.78,22.05-10.08,1.74-2.58,3.17-5.39,3.63-8.18,1.46-8.7,2.72-17.42,3.45-26.15,1.4-16.73,2.6-33.47,3.5-50.22.99-18.38.15-36.77.94-55.16.29-6.67-.28-13.34-.33-20.01-.06-8.28-.16-16.6-1.37-24.83Z"/></g></svg>