<?xml version="1.0" encoding="UTF-8"?><svg id="Layer_2" xmlns="http://www.w3.org/2000/svg" viewBox="0 0 95.8 34.69"><defs><style>.cls-1{fill:#009447;stroke-width:0px;}</style></defs><g id="Layer_1-2"><path class="cls-1" d="M94.93,21.22c1.82,2.31.75,10.66-2.8,12.13,1.95-4.07,2.28-8.11,2.8-12.13Z"/><path class="cls-1" d="M5.77.89c-1.29,1.07-2.91,2.08-3.8,3.27-.89,1.19-1.05,2.55-1.53,3.83-.08,0-.17,0-.25.01-.06-.55-.21-1.1-.17-1.64.13-1.57.88-3.04,2.58-4.31.83-.62,1.87-1.09,3.18-1.16Z"/><path class="cls-1" d="M95.26,18.77c.05.57.1,1.14.15,1.7-.13,0-.27.01-.4.02-.4-.55-.33-1.12-.22-1.7l.47-.02Z"/><path class="cls-1" d="M0,10.17v-1.43c.88.34.94.99,0,1.43Z"/><path class="cls-1" d="M84.27,34.47c3.71-.21,5.66-1.25,6.43-3.28.47-1.24.83-2.51.91-3.77.19-3.18.3-6.36.22-9.54,0-.18-.02-.37-.05-.54.03-.18.05-.36.05-.54.08-3.18-.03-6.36-.22-9.54-.08-1.26-.44-2.53-.91-3.77-.77-2.03-2.72-3.08-6.43-3.28C80.84.03,77.37.01,73.91,0c-2.78,0-5.57.12-8.35.17-7.67.13-15.35.21-23.02.37-6.99.14-13.97.33-20.96.55-3.64.11-7.28.31-10.91.54-1.16.07-2.34.3-3.41.57-2.63.67-4,1.9-4.21,3.47-.19,1.48-.1,2.98-.13,4.47,0,.64,0,1.27,0,1.91-.06,0-.12,0-.19,0,.13,1.77.22,3.53.38,5.3-.16,1.76-.25,3.53-.38,5.3.06,0,.12,0,.19,0,0,.64,0,1.27,0,1.91.03,1.49-.07,2.98.13,4.47.21,1.57,1.58,2.8,4.21,3.47,1.07.27,2.25.5,3.41.57,3.63.23,7.27.43,10.91.54,6.98.22,13.97.41,20.96.55,7.67.16,15.34.24,23.02.37,2.78.05,5.57.17,8.35.17,3.45,0,6.93-.03,10.36-.22ZM76.86,33.71c-3.62-.07-7.24-.22-10.86-.29-9-.17-17.99-.3-26.99-.47-5.3-.1-10.61-.25-15.9-.43-3.93-.13-7.86-.34-11.79-.54-.73-.04-1.45-.17-2.15-.31-2.66-.5-4.14-1.54-4.18-3.11,0-.29-.01-.58-.02-.86,0-.29,0-.58-.01-.87,0-.82-.01-1.63,0-2.45,0-1.26.03-2.52.08-3.78.04-1.09.11-2.17.23-3.26-.12-1.08-.18-2.17-.23-3.25-.05-1.26-.07-2.52-.08-3.78,0-.82,0-1.64,0-2.45,0-.29,0-.58.01-.87,0-.29.01-.58.02-.86.03-1.57,1.52-2.61,4.18-3.11.7-.13,1.42-.27,2.15-.31,3.92-.2,7.85-.41,11.79-.54,5.3-.18,10.6-.32,15.9-.42,9-.18,17.99-.3,26.99-.47,3.62-.07,7.24-.22,10.86-.29,2.74-.05,5.5-.16,8.19.29,2.13.35,3.6,1.05,3.93,2.34.28,1.09.58,2.19.73,3.29.22,1.6.39,3.2.44,4.79.01.4.03.79.04,1.19.02.62.04,1.24.04,1.85,0,0,0,0,0,0,0,.87-.04,1.75-.16,2.62.12.87.16,1.74.16,2.62,0,0,0,0,0,0,0,.62-.02,1.24-.04,1.86-.01.39-.03.79-.04,1.18-.05,1.6-.22,3.2-.44,4.79-.15,1.1-.45,2.19-.73,3.29-.33,1.29-1.8,1.99-3.93,2.34-2.69.45-5.45.34-8.19.29Z"/><path class="cls-1" d="M23.93,21.06c.71.21.04,1.77.92,2.28h.11c.99,0,1.27-1.36,1.27-2.08,0-.97-.07-2.01-.48-2.93-.83-1.91-2.61-3.5-2.61-5.68,0-.99.6-2.63,1.82-2.63.78,0,2.07.62,2.07,1.54,0,.33-.11.53-.46.53-.69,0-.48-1.06-1.45-1.06-.9,0-.97,1.25-.97,1.87,0,1.78,1.5,3.04,2.29,4.52.72,1.36,1.09,3.34.67,4.68-.28.92-1.08,2.17-2.15,2.17-1.31,0-1.71-1.62-1.71-2.68,0-.3.41-.6.69-.51Z"/><path class="cls-1" d="M30.07,18.87v4.98c0,.79-.97.49-1.01.26,0-.63.04-3.57.04-4.18,0-1.38.12-8.49.14-9.85.14-.14.3-.14.49-.14.25,0,.39.16.55.37,0,1.69-.16,4.11-.16,5.91,0,.25,0,1.38.02,1.61.14.16.27.12.42.12.67,0,1.34,0,2,.04.14-2,.21-5.44.16-7.68v-.09c0-.26.21-.39.46-.39.21,0,.46.18.58.35,0,.39-.05,1.52-.07,1.89-.25,8.1.19,12.2-.39,12.22-.62.02-.62-.74-.62-1.92,0-.32-.09-3.18-.09-3.5h-2.52Z"/><path class="cls-1" d="M38.81,10.18c3.16.35,2.7,7.87,2.52,10.22-.12,1.29-.78,3.53-2.54,3.53-3.12,0-3.27-5.33-3.27-7.4,0-2.24.16-6.36,3.28-6.36ZM36.53,16.47c0,5.17.95,6.59,2.21,6.59,1.73,0,1.75-4.48,1.75-5.6v-.07c0-1.36-.37-6.3-2.05-6.3-1.32,0-1.89,2.95-1.89,3.83-.02.56-.02,1.06-.02,1.55Z"/><path class="cls-1" d="M43.23,20.09c0-1.41.09-8.01.12-9.43.09-.25.53-.21.74-.21,1.84,0,3.16,1.62,3.16,3.39,0,1.91-1.31,4.04-3.05,4.85-.02.28-.09,1.66-.09,1.94-.02.6-.02,3.32,0,3.9-.11.18-.37.23-.55.23-.16,0-.19-.02-.34-.11v-4.57ZM44.17,17.51c.12,0,.28-.04.37-.12,1.02-.94,1.62-2.01,1.62-3.42,0-.92-.65-2.58-1.87-2.58l-.12,6.13Z"/><path class="cls-1" d="M54.53,11.45c-.04-.71.94-1.13,1.31-.11l3.6,9.76c.02-.78.16-5.12.26-6.85.05-1.06-.02-2.14.21-3.12,0-.19.19-.19.46-.19.42.02.46.04.44.42-.05,1.84-.32,3.67-.39,5.51-.04,1.02-.21,5.91-.21,6.94-.12.37-.67.16-.81-.14-.18-.37-.32-.72-4.06-10.73l-.12,10.84c0,.53-.9.48-.9.11l.21-12.43Z"/><path class="cls-1" d="M65.19,10.18c3.16.35,2.7,7.87,2.52,10.22-.12,1.29-.78,3.53-2.54,3.53-3.12,0-3.27-5.33-3.27-7.4,0-2.24.16-6.36,3.28-6.36ZM62.91,16.47c0,5.17.95,6.59,2.21,6.59,1.73,0,1.75-4.48,1.75-5.6v-.07c0-1.36-.37-6.3-2.05-6.3-1.32,0-1.89,2.95-1.89,3.83-.02.56-.02,1.06-.02,1.55Z"/><path class="cls-1" d="M72.46,23.79s-.02.04-.02.05c-.11.41-.16.71-.62.76-.25.02-.28.02-.44-.19l-.23-1.17c-.49-3.21-.92-6.37-1.5-9.57-.14-.72-.32-1.5-.58-2.21-.02-.07-.02-.09-.02-.09,0-.51,1.04-.58,1.13-.14.51,2.37.99,5.63,1.41,8.05l.34,1.94c.37-1.36.48-2.79.65-4.08.04-.28.28-.48.58-.51.19-.02.39-.02.51.18l1.96,4.87c.09-3.11.44-8.33.64-11.09.19-.46.97-.51,1.04.07.05.57-.18,1.75-.21,2.31-.3,3.74-.34,7.45-.49,11.17-.19.21-.12.37-.48.41h-.12c-.46,0-.44-.37-.6-.79l-2.1-5.4c-.21,2.42-.64,3.78-.85,5.42Z"/></g></svg>